<?xml version="1.0" encoding="utf-8"?>
<!-- Generator: Adobe Illustrator 18.1.1, SVG Export Plug-In . SVG Version: 6.00 Build 0)  -->
<svg version="1.1" id="Layer_1" xmlns="http://www.w3.org/2000/svg" xmlns:xlink="http://www.w3.org/1999/xlink" x="0px" y="0px"
	 viewBox="0 0 2267.7 566.9" enable-background="new 0 0 2267.7 566.9" xml:space="preserve">
<g enable-background="new    ">
	<path fill="#FC373A" d="M104.3,133.6c18.2-3.7,44.3-5.8,69.1-5.8c38.5,0,63.3,7,80.7,22.8c14.1,12.4,21.9,31.5,21.9,53
		c0,36.8-23.2,61.3-52.6,71.2v1.2c21.5,7.5,34.4,27.3,41,56.3c9.1,38.9,15.7,65.8,21.5,76.6h-37.3c-4.6-7.9-10.8-31.9-18.6-66.6
		c-8.3-38.5-23.2-53-55.9-54.2h-33.9v120.9h-36V133.6z M140.4,260.7h36.8c38.5,0,62.9-21.1,62.9-53c0-36-26.1-51.7-64.2-52.2
		c-17.4,0-29.8,1.7-35.6,3.3V260.7z"/>
	<path fill="#FC373A" d="M347.8,315.4c0.8,49.3,32.3,69.5,68.7,69.5c26.1,0,41.8-4.6,55.5-10.3l6.2,26.1
		c-12.8,5.8-34.8,12.4-66.6,12.4c-61.7,0-98.5-40.6-98.5-101c0-60.4,35.6-108,94-108c65.4,0,82.8,57.5,82.8,94.4
		c0,7.5-0.8,13.2-1.2,17H347.8z M454.6,289.3c0.4-23.2-9.5-59.2-50.5-59.2c-36.8,0-53,33.9-55.9,59.2H454.6z"/>
	<path fill="#FC373A" d="M578.8,151v57.5h52.2v27.7h-52.2v108c0,24.8,7,38.9,27.3,38.9c9.5,0,16.6-1.2,21.1-2.5l1.7,27.3
		c-7,2.9-18.2,5-32.3,5c-17,0-30.6-5.4-39.3-15.3c-10.3-10.8-14.1-28.6-14.1-52.2V236.3h-31v-27.7h31v-48L578.8,151z"/>
	<path fill="#FC373A" d="M782.8,408.9l-2.9-25.3h-1.2c-11.2,15.7-32.7,29.8-61.3,29.8c-40.6,0-61.3-28.6-61.3-57.5
		c0-48.4,43.1-74.9,120.5-74.5v-4.1c0-16.6-4.6-46.4-45.5-46.4c-18.6,0-38.1,5.8-52.2,14.9l-8.3-24c16.6-10.8,40.6-17.8,65.8-17.8
		c61.3,0,76.2,41.8,76.2,82v74.9c0,17.4,0.8,34.4,3.3,48H782.8z M777.5,306.7c-39.7-0.8-84.9,6.2-84.9,45.1
		c0,23.6,15.7,34.8,34.4,34.8c26.1,0,42.6-16.6,48.4-33.5c1.2-3.7,2.1-7.9,2.1-11.6V306.7z"/>
	<path fill="#FC373A" d="M912,152.3c0.4,12.4-8.7,22.4-23.2,22.4c-12.8,0-21.9-9.9-21.9-22.4c0-12.8,9.5-22.8,22.8-22.8
		C903.3,129.5,912,139.4,912,152.3z M871.4,408.9V208.6h36.4v200.4H871.4z"/>
	<path fill="#FC373A" d="M968.3,115h36.4v293.9h-36.4V115z"/>
</g>
<g enable-background="new    ">
	<path fill="#005E9B" d="M1046.7,387.8l154.8-226.4v-1.2h-141.6v-30.2h188.4v21.9l-154,225.6v1.2h156.1v30.2h-203.7V387.8z"/>
	<path fill="#005E9B" d="M1469.7,307.1c0,74.1-51.3,106.4-99.8,106.4c-54.2,0-96-39.7-96-103.1c0-67.1,43.9-106.4,99.4-106.4
		C1430.8,204,1469.7,245.8,1469.7,307.1z M1310.8,309.2c0,43.9,25.3,77,60.9,77c34.8,0,60.9-32.7,60.9-77.8c0-33.9-17-77-60-77
		S1310.8,271.1,1310.8,309.2z"/>
	<path fill="#005E9B" d="M1697,307.1c0,74.1-51.3,106.4-99.8,106.4c-54.2,0-96-39.7-96-103.1c0-67.1,43.9-106.4,99.4-106.4
		C1658.1,204,1697,245.8,1697,307.1z M1538,309.2c0,43.9,25.3,77,60.9,77c34.8,0,60.9-32.7,60.9-77.8c0-33.9-17-77-60-77
		S1538,271.1,1538,309.2z"/>
	<path fill="#005E9B" d="M1743,262.8c0-20.7-0.4-37.7-1.7-54.2h31.9l1.7,32.3h1.2c11.2-19,29.8-36.8,62.9-36.8
		c27.3,0,48,16.6,56.7,40.2h0.8c6.2-11.2,14.1-19.9,22.4-26.1c12-9.1,25.3-14.1,44.3-14.1c26.5,0,65.8,17.4,65.8,86.9v118h-35.6
		V295.5c0-38.5-14.1-61.7-43.5-61.7c-20.7,0-36.8,15.3-43.1,33.1c-1.7,5-2.9,11.6-2.9,18.2v123.8h-35.6V288.9
		c0-31.9-14.1-55.1-41.8-55.1c-22.8,0-39.3,18.2-45.1,36.4c-2.1,5.4-2.9,11.6-2.9,17.8v120.9H1743V262.8z"/>
</g>
<g>
	<g enable-background="new    ">
		<path fill="#005E9B" d="M2157.4,183.7c0,31.6-24.6,56.9-56,56.9c-31.6,0-56.6-25.3-56.6-56.9c0-31.2,25-56.6,56.6-56.6
			C2132.8,127.1,2157.4,152.5,2157.4,183.7z M2056.7,183.9c0,25.7,19.8,46.3,44.5,46.3c24.4,0,44.3-20.6,44.3-46.3
			c0-25.7-19.8-46.3-44.3-46.3C2076.6,137.6,2056.7,158.2,2056.7,183.9z M2123.2,165.5c-2.2-1.3-9.4-4-17.5-4
			c-14.1,0-22.8,8.4-22.8,22.8c0,13.4,9,23,22.6,23c7.5,0,14.3-1.8,18.4-4.6l2.8,9.6c-6.4,4.2-14.7,5.9-22.8,5.9
			c-21.5,0-34-14.5-34-33.2c0-21.1,16.9-34.2,35.8-34.2c8.8,0,17.8,2.6,20.2,5.1L2123.2,165.5z"/>
	</g>
</g>
</svg>
